# xmcd
#
# Track frame offsets: 
#        150
#        19280
#        42650
#        66100
#        85549
#        104508
#        123870
#        144769
#        164869
#        182185
#        203729
#        223317
#        240181
#
# Disc length: 3504 seconds
#
# Revision: 0
# Processed by: cddbd v1.5.2PL0 Copyright (c) Steve Scherf et al.
# Submitted via: ExactAudioCopy v1.0b4
#
DISCID=b90dae0d
DTITLE=Melvin 'Guitar' Williams - Shut Your Mouth
DYEAR=2007
DGENRE=Blues
TTITLE0=Shut Your Mouth
TTITLE1=Highway 95
TTITLE2=Landlord Knocking
TTITLE3=Where My Baby Used To Lay (Slow)
TTITLE4=If I Die Today Or Tomorrow
TTITLE5=Pam
TTITLE6=Cancel My Reservation
TTITLE7=Where My Baby Used To Lay (Fast)
TTITLE8=My Baby's Moma
TTITLE9=Sixty Minute Man
TTITLE10=Playing With Myself
TTITLE11=Two Legged Dogs
TTITLE12=Mustard Greens
EXTD=
EXTT0=
EXTT1=
EXTT2=
EXTT3=
EXTT4=
EXTT5=
EXTT6=
EXTT7=
EXTT8=
EXTT9=
EXTT10=
EXTT11=
EXTT12=
PLAYORDER=
